<?xml version="1.0" standalone="no"?>
<svg xmlns="http://www.w3.org/2000/svg" viewBox="0 0 106.738 123.25" width="106.738" height="123.25"><polygon fill="none" stroke="#000000" stroke-width="3" points="105.238,31.5625 105.238,91.6875 53.369,121.75 1.5,91.6875 1.5,31.5625 53.369,1.5"></polygon><path fill="#000000" fill-rule="nonzero" d="M3.34 26.20L3.34 26.20Q2.54 26.20 1.87 25.50Q1.20 24.80 0.78 23.50Q0.36 22.20 0.18 20.30Q0 18.40 0.19 15.97L0.19 15.97Q0.30 14.36 0.63 12.67Q0.96 10.99 1.37 9.42Q1.78 7.85 2.24 6.45Q2.71 5.06 3.10 3.98Q3.50 2.90 3.76 2.24Q4.02 1.59 4.07 1.48L4.07 1.48Q4.16 1.34 4.39 1.19Q4.62 1.04 4.94 0.93Q5.25 0.82 5.62 0.75Q5.99 0.68 6.32 0.68L6.32 0.68Q6.59 0.68 6.84 0.71L6.84 0.71Q7.05 0.74 7.27 0.79Q7.49 0.85 7.66 0.96L7.66 0.96Q7.36 1.15 7.07 1.54Q6.78 1.94 6.54 2.38L6.54 2.38Q6.23 2.87 5.99 3.45L5.99 3.45Q5.44 4.59 4.84 6.23Q4.24 7.88 3.71 9.72Q3.17 11.57 2.78 13.47Q2.38 15.37 2.24 17.04L2.24 17.04Q2.02 20.40 2.49 22.05Q2.95 23.71 3.80 23.71L3.80 23.71Q4.21 23.71 4.68 23.19Q5.14 22.67 5.62 21.85Q6.10 21.03 6.56 20.02Q7.03 19.00 7.44 18.02L7.44 18.02Q7.68 17.39 7.97 16.61Q8.26 15.83 8.54 15.01Q8.83 14.19 9.11 13.38Q9.38 12.58 9.60 11.92L9.60 11.92Q9.60 11.10 9.63 10.19Q9.65 9.27 9.75 8.33Q9.84 7.38 10.01 6.47Q10.17 5.55 10.45 4.79L10.45 4.79Q10.99 3.31 11.73 2.61Q12.47 1.91 13.02 1.89L13.02 1.89Q13.40 1.89 13.56 2.21Q13.73 2.54 13.70 3.09L13.70 3.09Q13.64 3.80 13.45 4.80Q13.26 5.80 13.00 6.93Q12.74 8.07 12.41 9.23Q12.09 10.39 11.79 11.46L11.79 11.46Q11.29 14.27 11.18 16.56Q11.07 18.84 11.22 20.47Q11.38 22.09 11.74 22.98Q12.11 23.87 12.63 23.87L12.63 23.87Q13.23 23.87 13.90 23.05Q14.57 22.23 15.23 20.88Q15.89 19.52 16.50 17.80Q17.12 16.08 17.62 14.26Q18.13 12.44 18.46 10.68Q18.79 8.91 18.89 7.49L18.89 7.49Q18.98 6.32 18.98 5.17L18.98 5.17Q18.98 4.18 18.89 3.06Q18.81 1.94 18.59 1.04L18.59 1.04Q18.95 0.74 19.55 0.55L19.55 0.55Q19.85 0.44 20.21 0.36L20.21 0.36Q20.43 0.30 20.67 0.27L20.67 0.27Q20.89 0.25 21.11 0.23Q21.33 0.22 21.52 0.27L21.52 0.27Q21.68 0.66 21.75 1.26Q21.82 1.86 21.85 2.43L21.85 2.43Q21.88 3.12 21.82 3.86L21.82 3.86Q21.60 6.75 21.07 9.54Q20.54 12.33 19.77 14.83Q19.00 17.34 18.06 19.43Q17.12 21.52 16.12 23.05Q15.12 24.58 14.12 25.43Q13.13 26.28 12.22 26.28L12.22 26.28Q11.27 26.28 10.69 25.47Q10.12 24.66 9.82 23.45Q9.52 22.23 9.43 20.84Q9.35 19.44 9.38 18.27L9.38 18.27Q8.75 19.80 8.03 21.22Q7.30 22.64 6.52 23.75Q5.74 24.86 4.94 25.53Q4.13 26.20 3.34 26.20ZM36.64 18.40L36.64 18.40Q36.48 20.23 35.55 21.68Q34.62 23.13 33.18 24.13Q31.75 25.13 29.94 25.65Q28.14 26.17 26.22 26.17L26.22 26.17Q25.51 26.17 24.90 26.07Q24.28 25.98 23.79 25.84Q23.30 25.70 22.96 25.58Q22.61 25.46 22.48 25.38L22.48 25.38Q22.23 25.24 22.08 25.03Q21.93 24.83 21.90 24.45L21.90 24.45Q21.88 24.23 21.88 24.10Q21.88 23.98 21.90 23.84Q21.93 23.71 22.00 23.47Q22.07 23.24 22.18 22.83L22.18 22.83Q22.23 22.59 22.60 21.29Q22.97 19.99 23.49 18.12Q24.01 16.24 24.62 14.05Q25.24 11.87 25.81 9.82Q26.39 7.77 26.85 6.11Q27.32 4.46 27.54 3.66L27.54 3.66Q27.15 3.94 26.78 4.24Q26.41 4.54 26.03 4.89L26.03 4.89Q25.62 5.28 25.22 5.15Q24.83 5.03 24.66 4.48L24.66 4.48Q24.61 4.21 24.58 3.91L24.58 3.91Q24.55 3.66 24.60 3.35Q24.64 3.04 24.80 2.73L24.80 2.73Q25.70 2.19 26.56 1.80Q27.43 1.42 28.22 1.12L28.22 1.12Q28.38 0.66 28.59 0.41Q28.79 0.16 29.01 0.08Q29.23 0 29.48 0.03Q29.72 0.05 30.00 0.11L30.00 0.11Q30.60 0.25 30.79 0.49L30.79 0.49Q31.17 0.44 31.53 0.41Q31.88 0.38 32.27 0.38L32.27 0.38Q33.85 0.38 35.03 0.79Q36.20 1.20 36.96 1.90Q37.71 2.60 38.04 3.53Q38.36 4.46 38.28 5.50L38.28 5.50Q38.20 6.40 37.80 7.37Q37.41 8.34 36.75 9.28Q36.09 10.23 35.22 11.12Q34.34 12.00 33.28 12.74L33.28 12.74Q34.13 13.23 34.78 13.89Q35.44 14.55 35.88 15.31Q36.31 16.08 36.50 16.87Q36.70 17.66 36.64 18.40ZM27.59 11.70L27.59 11.70Q27.54 11.98 27.47 12.25Q27.40 12.52 27.32 12.82L27.32 12.82Q27.64 12.47 28.42 12.17Q29.20 11.87 29.91 11.87L29.91 11.87Q30.30 11.87 30.65 11.91Q31.01 11.95 31.34 12.00L31.34 12.00Q32.10 11.51 32.81 10.73Q33.52 9.95 34.06 9.06Q34.59 8.18 34.93 7.25Q35.27 6.32 35.36 5.52L35.36 5.52Q35.52 3.64 34.71 2.72Q33.91 1.80 32.43 1.80L32.43 1.80Q31.45 1.80 30.38 2.16L30.38 2.16Q30.16 2.87 29.83 3.92Q29.50 4.98 29.13 6.23Q28.77 7.49 28.36 8.89Q27.95 10.28 27.59 11.70ZM27.13 13.51L27.13 13.51Q26.74 14.98 26.36 16.71L26.36 16.71Q26.00 18.18 25.59 20.14Q25.18 22.09 24.72 24.31L24.72 24.31Q24.88 24.45 25.16 24.50Q25.43 24.55 25.70 24.61L25.70 24.61Q26.00 24.66 26.36 24.66L26.36 24.66Q27.59 24.66 28.86 24.16Q30.13 23.65 31.20 22.72Q32.27 21.79 32.99 20.47Q33.71 19.14 33.85 17.50L33.85 17.50Q33.91 16.76 33.76 16.17Q33.61 15.59 33.32 15.11Q33.03 14.63 32.66 14.26Q32.29 13.89 31.88 13.62L31.88 13.62Q30.63 14.30 29.12 14.77L29.12 14.77Q28.63 14.90 28.27 14.81Q27.92 14.71 27.67 14.51Q27.43 14.30 27.29 14.03Q27.15 13.75 27.13 13.51Z" transform="translate(34.267, 22.5)"></path><g fill="#000000" color="#000000" transform="translate(31.369 56.75) scale(0.8301887)"><svg width="53.0" height="53.0" x="0.0" y="0.0" viewBox="0 0 53 53"><path fill="currentColor" fill-rule="evenodd" d="M47.767 8.544a98.565 98.565 0 0 1-7.287 9.516.982.982 0 0 0-.199-.04h-6.36a1.06 1.06 0 0 0-1.046 1.234l1.052 6.309a81.588 81.588 0 0 1-7.39 7.265l-7.165-2.047a1.06 1.06 0 0 0-1.33 1.227l1.06 5.3c.015.052.035.1.057.147-3.732 2.038-7.847 4.076-10.704 5.455 8.78-12.241 25.257-32.704 41.841-40.024a51.333 51.333 0 0 1-2.529 5.658zM35.172 20.14h3.553a209.062 209.062 0 0 1-2.984 3.418l-.569-3.418zm-14.71 13.157l3.902 1.115a73.381 73.381 0 0 1-3.286 1.974l-.616-3.09zM12.48 23.27c.078.026.159.043.24.049h5.301a1.06 1.06 0 0 0 1.06-1.06v-6.064a82.995 82.995 0 0 1 8.222-6.708c.082.028.17.046.258.052h6.36a1.06 1.06 0 0 0 1.06-1.06V4.889a23.605 23.605 0 0 1 7.33-2.297 88.944 88.944 0 0 1 4.501-.397c-16.24 8.399-31.618 27.561-40.038 39.353.638-4.911 2.184-13.121 5.706-18.277zm4.481-5.034V21.2h-2.82a69.94 69.94 0 0 1 2.82-2.963zm15.9-12.266V7.42h-2.478c.824-.515 1.65-.995 2.477-1.45zm20.098-4.695a1.03 1.03 0 0 0-.025-.588 1.064 1.064 0 0 0-1.366-.621c-.07.026-.142.061-.214.088-1.235-.22-3.765-.28-9.277.328a26.337 26.337 0 0 0-8.552 2.776c-.016.007-.03.017-.048.025-8.375 4.17-17.006 11.952-21.558 17.223-6.182 7.158-7.468 21.974-7.651 24.621C1.86 48.64.395 51.001.158 51.384A1.061 1.061 0 0 0 1.961 52.5l.002-.005c.06-.096 1.516-2.438 4.012-6.059 1.865-.867 13.94-6.53 20.05-10.572C32.772 31.4 47.66 13.07 49.615 9.581a66.012 66.012 0 0 0 3.323-7.684.951.951 0 0 0 .021-.621z"></path></svg></g></svg>