<?xml version="1.0" standalone="no"?>
<svg xmlns="http://www.w3.org/2000/svg" viewBox="0 0 168.262 36" width="168.262" height="36"><g fill="#000000" color="#000000" transform="translate(0 4) scale(0.5283019)"><svg width="53.0" height="53.0" x="0.0" y="0.0" viewBox="0 0 53 53"><path fill="currentColor" fill-rule="evenodd" d="M47.767 8.544a98.565 98.565 0 0 1-7.287 9.516.982.982 0 0 0-.199-.04h-6.36a1.06 1.06 0 0 0-1.046 1.234l1.052 6.309a81.588 81.588 0 0 1-7.39 7.265l-7.165-2.047a1.06 1.06 0 0 0-1.33 1.227l1.06 5.3c.015.052.035.1.057.147-3.732 2.038-7.847 4.076-10.704 5.455 8.78-12.241 25.257-32.704 41.841-40.024a51.333 51.333 0 0 1-2.529 5.658zM35.172 20.14h3.553a209.062 209.062 0 0 1-2.984 3.418l-.569-3.418zm-14.71 13.157l3.902 1.115a73.381 73.381 0 0 1-3.286 1.974l-.616-3.09zM12.48 23.27c.078.026.159.043.24.049h5.301a1.06 1.06 0 0 0 1.06-1.06v-6.064a82.995 82.995 0 0 1 8.222-6.708c.082.028.17.046.258.052h6.36a1.06 1.06 0 0 0 1.06-1.06V4.889a23.605 23.605 0 0 1 7.33-2.297 88.944 88.944 0 0 1 4.501-.397c-16.24 8.399-31.618 27.561-40.038 39.353.638-4.911 2.184-13.121 5.706-18.277zm4.481-5.034V21.2h-2.82a69.94 69.94 0 0 1 2.82-2.963zm15.9-12.266V7.42h-2.478c.824-.515 1.65-.995 2.477-1.45zm20.098-4.695a1.03 1.03 0 0 0-.025-.588 1.064 1.064 0 0 0-1.366-.621c-.07.026-.142.061-.214.088-1.235-.22-3.765-.28-9.277.328a26.337 26.337 0 0 0-8.552 2.776c-.016.007-.03.017-.048.025-8.375 4.17-17.006 11.952-21.558 17.223-6.182 7.158-7.468 21.974-7.651 24.621C1.86 48.64.395 51.001.158 51.384A1.061 1.061 0 0 0 1.961 52.5l.002-.005c.06-.096 1.516-2.438 4.012-6.059 1.865-.867 13.94-6.53 20.05-10.572C32.772 31.4 47.66 13.07 49.615 9.581a66.012 66.012 0 0 0 3.323-7.684.951.951 0 0 0 .021-.621z"></path></svg></g><path fill="#000000" fill-rule="nonzero" d="M2.86 22.45L2.86 22.45Q2.18 22.45 1.61 21.86Q1.03 21.26 0.67 20.14Q0.30 19.03 0.15 17.40Q0 15.77 0.16 13.69L0.16 13.69Q0.26 12.30 0.54 10.86Q0.82 9.42 1.17 8.07Q1.52 6.73 1.92 5.53Q2.32 4.34 2.66 3.41Q3 2.48 3.22 1.92Q3.45 1.36 3.49 1.27L3.49 1.27Q3.56 1.15 3.76 1.02Q3.96 0.89 4.23 0.80Q4.50 0.70 4.82 0.64Q5.13 0.59 5.41 0.59L5.41 0.59Q5.65 0.59 5.86 0.61L5.86 0.61Q6.05 0.63 6.23 0.68Q6.42 0.73 6.56 0.82L6.56 0.82Q6.30 0.98 6.06 1.32Q5.81 1.66 5.60 2.04L5.60 2.04Q5.34 2.46 5.13 2.95L5.13 2.95Q4.66 3.94 4.15 5.34Q3.63 6.75 3.18 8.33Q2.72 9.91 2.38 11.54Q2.04 13.17 1.92 14.60L1.92 14.60Q1.73 17.48 2.13 18.90Q2.53 20.32 3.26 20.32L3.26 20.32Q3.61 20.32 4.01 19.88Q4.41 19.43 4.82 18.73Q5.23 18.02 5.63 17.16Q6.02 16.29 6.38 15.45L6.38 15.45Q6.59 14.91 6.83 14.24Q7.08 13.57 7.32 12.87Q7.57 12.16 7.80 11.47Q8.04 10.78 8.23 10.22L8.23 10.22Q8.23 9.52 8.25 8.73Q8.27 7.95 8.36 7.14Q8.44 6.33 8.58 5.54Q8.72 4.76 8.95 4.10L8.95 4.10Q9.42 2.84 10.05 2.24Q10.69 1.64 11.16 1.62L11.16 1.62Q11.48 1.62 11.63 1.90Q11.77 2.18 11.74 2.65L11.74 2.65Q11.70 3.26 11.53 4.11Q11.37 4.97 11.14 5.94Q10.92 6.91 10.64 7.91Q10.36 8.91 10.10 9.82L10.10 9.82Q9.68 12.23 9.59 14.19Q9.49 16.15 9.62 17.54Q9.75 18.94 10.07 19.70Q10.38 20.46 10.83 20.46L10.83 20.46Q11.34 20.46 11.92 19.76Q12.49 19.05 13.05 17.89Q13.62 16.73 14.14 15.26Q14.67 13.78 15.11 12.22Q15.54 10.66 15.82 9.15Q16.10 7.64 16.20 6.42L16.20 6.42Q16.27 5.41 16.27 4.43L16.27 4.43Q16.27 3.59 16.20 2.63Q16.13 1.66 15.94 0.89L15.94 0.89Q16.24 0.63 16.76 0.47L16.76 0.47Q17.02 0.38 17.32 0.30L17.32 0.30Q17.51 0.26 17.72 0.23L17.72 0.23Q17.91 0.21 18.09 0.20Q18.28 0.19 18.45 0.23L18.45 0.23Q18.59 0.56 18.64 1.08Q18.70 1.59 18.73 2.09L18.73 2.09Q18.75 2.67 18.70 3.30L18.70 3.30Q18.52 5.79 18.06 8.18Q17.60 10.57 16.95 12.71Q16.29 14.86 15.48 16.65Q14.67 18.45 13.82 19.76Q12.96 21.07 12.11 21.80Q11.25 22.52 10.48 22.52L10.48 22.52Q9.66 22.52 9.16 21.83Q8.67 21.14 8.41 20.10Q8.16 19.05 8.09 17.86Q8.02 16.66 8.04 15.66L8.04 15.66Q7.50 16.97 6.88 18.19Q6.26 19.41 5.59 20.36Q4.92 21.30 4.23 21.88Q3.54 22.45 2.86 22.45ZM24.26 4.17L24.26 4.17Q24.19 4.43 23.99 4.68Q23.79 4.92 23.54 5.07Q23.30 5.23 23.04 5.27Q22.78 5.32 22.62 5.18L22.62 5.18Q22.13 4.80 22.10 4.37Q22.08 3.94 22.31 3.55Q22.55 3.16 22.90 2.89Q23.25 2.63 23.51 2.58L23.51 2.58Q23.77 2.53 23.94 2.68Q24.12 2.84 24.21 3.08Q24.30 3.33 24.32 3.63Q24.33 3.94 24.26 4.17ZM21.02 9.16L21.02 9.16Q21.14 9.02 21.47 8.93Q21.80 8.84 22.15 8.78Q22.50 8.72 22.79 8.71Q23.09 8.70 23.13 8.72L23.13 8.72Q23.16 8.74 23.02 9.21Q22.88 9.68 22.66 10.31Q22.45 10.95 22.22 11.61Q21.98 12.28 21.87 12.70L21.87 12.70Q21.75 13.13 21.59 13.65Q21.42 14.18 21.29 14.68Q21.16 15.19 21.12 15.63Q21.07 16.08 21.19 16.31L21.19 16.31Q21.30 16.59 21.45 16.70Q21.59 16.80 21.75 16.80L21.75 16.80Q22.22 16.80 22.93 16.29Q23.65 15.77 24.39 15.06Q25.13 14.34 25.76 13.61Q26.39 12.87 26.70 12.42L26.70 12.42Q26.88 12.19 27.08 12.12Q27.28 12.05 27.41 12.14Q27.54 12.23 27.55 12.45Q27.56 12.66 27.40 12.94L27.40 12.94Q27.02 13.59 26.30 14.50Q25.57 15.40 24.75 16.23Q23.93 17.06 23.14 17.65Q22.36 18.23 21.87 18.26L21.87 18.26Q21.47 18.28 21.08 18.13Q20.70 17.98 20.38 17.71Q20.06 17.44 19.85 17.07Q19.64 16.71 19.62 16.31L19.62 16.31Q19.55 15.73 19.62 14.71Q19.69 13.69 19.88 12.62Q20.06 11.55 20.36 10.59Q20.65 9.63 21.02 9.16ZM25.34 17.60L25.34 17.60Q26.37 13.27 26.99 10.64Q27.61 8.02 27.94 6.63L27.94 6.63Q28.31 4.99 28.45 4.36L28.45 4.36Q28.52 3.91 28.57 3.49L28.57 3.49Q28.62 3.12 28.62 2.72Q28.62 2.32 28.55 1.99L28.55 1.99Q28.73 1.88 28.96 1.80Q29.18 1.73 29.39 1.69L29.39 1.69Q29.65 1.62 29.91 1.57L29.91 1.57Q30.16 1.52 30.38 1.52L30.38 1.52Q30.56 1.52 30.73 1.56Q30.89 1.59 30.94 1.71L30.94 1.71Q31.08 1.83 31.07 2.18Q31.05 2.53 31.01 2.91L31.01 2.91Q30.91 3.35 30.80 3.87L30.80 3.87Q30.52 4.88 30.02 6.77L30.02 6.77Q29.60 8.39 28.89 11.18Q28.17 13.97 27.09 18.21L27.09 18.21Q26.98 18.33 26.81 18.38Q26.65 18.42 26.51 18.42L26.51 18.42Q26.34 18.42 26.16 18.40L26.16 18.40Q25.99 18.35 25.83 18.26L25.83 18.26Q25.69 18.16 25.55 18.01Q25.41 17.86 25.34 17.60ZM30.59 17.60L30.59 17.60Q31.62 13.27 32.24 10.64Q32.86 8.02 33.19 6.63L33.19 6.63Q33.56 4.99 33.70 4.36L33.70 4.36Q33.77 3.91 33.82 3.49L33.82 3.49Q33.87 3.12 33.87 2.72Q33.87 2.32 33.80 1.99L33.80 1.99Q33.98 1.88 34.21 1.80Q34.43 1.73 34.64 1.69L34.64 1.69Q34.90 1.62 35.16 1.57L35.16 1.57Q35.41 1.52 35.63 1.52L35.63 1.52Q35.81 1.52 35.98 1.56Q36.14 1.59 36.19 1.71L36.19 1.71Q36.33 1.83 36.32 2.18Q36.30 2.53 36.26 2.91L36.26 2.91Q36.16 3.35 36.05 3.87L36.05 3.87Q35.77 4.88 35.27 6.77L35.27 6.77Q34.85 8.39 34.14 11.18Q33.42 13.97 32.34 18.21L32.34 18.21Q32.23 18.33 32.06 18.38Q31.90 18.42 31.76 18.42L31.76 18.42Q31.59 18.42 31.41 18.40L31.41 18.40Q31.24 18.35 31.08 18.26L31.08 18.26Q30.94 18.16 30.80 18.01Q30.66 17.86 30.59 17.60ZM41.34 4.17L41.34 4.17Q41.27 4.43 41.07 4.68Q40.88 4.92 40.63 5.07Q40.38 5.23 40.13 5.27Q39.87 5.32 39.70 5.18L39.70 5.18Q39.21 4.80 39.19 4.37Q39.16 3.94 39.40 3.55Q39.63 3.16 39.98 2.89Q40.34 2.63 40.59 2.58L40.59 2.58Q40.85 2.53 41.03 2.68Q41.20 2.84 41.30 3.08Q41.39 3.33 41.40 3.63Q41.41 3.94 41.34 4.17ZM38.11 9.16L38.11 9.16Q38.23 9.02 38.55 8.93Q38.88 8.84 39.23 8.78Q39.59 8.72 39.88 8.71Q40.17 8.70 40.22 8.72L40.22 8.72Q40.24 8.74 40.10 9.21Q39.96 9.68 39.75 10.31Q39.54 10.95 39.30 11.61Q39.07 12.28 38.95 12.70L38.95 12.70Q38.84 13.13 38.67 13.65Q38.51 14.18 38.38 14.68Q38.25 15.19 38.20 15.63Q38.16 16.08 38.27 16.31L38.27 16.31Q38.39 16.59 38.53 16.70Q38.67 16.80 38.84 16.80L38.84 16.80Q39.30 16.80 40.02 16.29Q40.73 15.77 41.47 15.06Q42.21 14.34 42.84 13.61Q43.48 12.87 43.78 12.42L43.78 12.42Q43.97 12.19 44.17 12.12Q44.37 12.05 44.50 12.14Q44.63 12.23 44.64 12.45Q44.65 12.66 44.48 12.94L44.48 12.94Q44.11 13.59 43.38 14.50Q42.66 15.40 41.84 16.23Q41.02 17.06 40.23 17.65Q39.45 18.23 38.95 18.26L38.95 18.26Q38.55 18.28 38.17 18.13Q37.78 17.98 37.46 17.71Q37.15 17.44 36.94 17.07Q36.73 16.71 36.70 16.31L36.70 16.31Q36.63 15.73 36.70 14.71Q36.77 13.69 36.96 12.62Q37.15 11.55 37.44 10.59Q37.73 9.63 38.11 9.16ZM54.80 13.31L54.80 13.31Q54.47 13.78 53.95 14.47Q53.44 15.16 52.89 15.86Q52.34 16.55 51.81 17.12Q51.28 17.70 50.93 17.93L50.93 17.93Q50.70 18.07 50.39 18.16Q50.09 18.26 49.77 18.28Q49.45 18.30 49.17 18.25Q48.89 18.19 48.68 18.05L48.68 18.05Q48.47 17.88 48.33 17.58L48.33 17.58Q48.21 17.32 48.11 16.90Q48 16.48 48.02 15.84L48.02 15.84Q47.46 16.78 46.78 17.29Q46.10 17.79 45.49 18.02L45.49 18.02Q44.79 18.28 44.09 18.33L44.09 18.33Q43.76 18.33 43.38 18.11Q43.01 17.88 42.75 17.40Q42.49 16.92 42.42 16.16Q42.35 15.40 42.61 14.34L42.61 14.34Q42.94 12.91 43.65 11.74Q44.37 10.57 45.21 9.74Q46.05 8.91 46.88 8.48Q47.70 8.06 48.23 8.11L48.23 8.11Q48.87 8.23 49.27 8.48L49.27 8.48Q49.59 8.72 49.70 9.18Q49.80 9.63 49.31 10.38L49.31 10.38Q49.64 10.31 49.86 10.29Q50.09 10.27 50.20 10.27L50.20 10.27Q50.34 10.27 50.39 10.29L50.39 10.29Q50.41 10.34 50.41 10.49Q50.41 10.64 50.34 11.04Q50.27 11.44 50.13 12.12Q49.99 12.80 49.76 13.88L49.76 13.88Q49.71 14.09 49.68 14.26Q49.64 14.44 49.61 14.61Q49.57 14.79 49.52 15.02Q49.48 15.26 49.41 15.61L49.41 15.61Q49.38 15.82 49.39 16.07Q49.41 16.31 49.48 16.52Q49.55 16.73 49.70 16.86Q49.85 16.99 50.13 16.99L50.13 16.99Q50.37 16.99 50.74 16.70Q51.12 16.41 51.54 15.95Q51.96 15.49 52.42 14.94Q52.88 14.39 53.27 13.88Q53.67 13.36 53.99 12.96Q54.30 12.56 54.45 12.38L54.45 12.38Q54.63 12.16 54.82 12.13Q55.01 12.09 55.10 12.23Q55.20 12.38 55.14 12.66Q55.08 12.94 54.80 13.31ZM47.93 14.34L47.93 14.34Q48.05 13.88 48.21 13.24Q48.38 12.61 48.49 12.02Q48.61 11.44 48.67 11.05Q48.73 10.66 48.63 10.69L48.63 10.69Q48.52 10.71 48.38 10.76L48.38 10.76Q48.26 10.80 48.07 10.83Q47.88 10.85 47.70 10.90L47.70 10.90Q47.88 10.52 47.92 10.28Q47.95 10.03 47.93 9.89L47.93 9.89Q47.91 9.73 47.84 9.63L47.84 9.63Q47.58 9.42 46.93 9.97Q46.29 10.52 45.45 12L45.45 12Q45.09 12.61 44.88 13.30Q44.67 13.99 44.59 14.60Q44.51 15.21 44.55 15.67Q44.60 16.13 44.74 16.27L44.74 16.27Q45 16.52 45.33 16.51Q45.66 16.50 46.00 16.32Q46.34 16.15 46.68 15.87Q47.02 15.59 47.29 15.28Q47.55 14.98 47.73 14.72Q47.91 14.46 47.93 14.34ZM64.15 16.90L64.15 16.90Q64.15 16.41 64.25 15.77Q64.36 15.14 64.52 14.47Q64.69 13.80 64.85 13.17Q65.02 12.54 65.13 12.05L65.13 12.05Q65.27 11.44 65.11 11.11Q64.95 10.78 64.55 10.78L64.55 10.78Q64.36 10.78 63.81 11.11Q63.26 11.44 62.61 12.25Q61.97 13.05 61.35 14.43Q60.73 15.80 60.38 17.91L60.38 17.91Q59.93 18.14 59.53 18.21L59.53 18.21Q59.32 18.26 59.16 18.28L59.16 18.28Q58.69 18.30 58.55 18.13Q58.41 17.95 58.59 17.27L58.59 17.27Q58.69 16.95 58.93 16.22Q59.18 15.49 59.41 14.64Q59.65 13.78 59.82 12.93Q60 12.07 60 11.44L60 11.44Q60 10.99 59.85 10.83Q59.70 10.66 59.41 10.66L59.41 10.66Q59.20 10.66 58.71 10.90Q58.22 11.13 57.61 11.81Q57 12.49 56.40 13.70Q55.80 14.91 55.38 16.83L55.38 16.83L55.38 16.78Q55.34 16.97 55.29 17.16L55.29 17.16Q55.24 17.32 55.22 17.51Q55.20 17.70 55.15 17.86L55.15 17.86L53.98 18.38Q53.86 18.42 53.68 18.45Q53.51 18.47 53.36 18.39Q53.20 18.30 53.13 18.05Q53.06 17.79 53.18 17.27L53.18 17.27L54.66 11.16Q54.73 10.85 54.77 10.57L54.77 10.57Q54.82 10.31 54.83 10.07Q54.84 9.82 54.80 9.66L54.80 9.66Q55.20 9.47 55.50 9.38Q55.80 9.28 55.99 9.23L55.99 9.23Q56.23 9.16 56.39 9.16L56.39 9.16Q57.14 9.16 56.88 10.45L56.88 10.45Q56.79 10.83 56.60 11.55L56.60 11.55Q57.05 10.99 57.55 10.49Q58.05 9.98 58.57 9.59Q59.09 9.19 59.61 8.95Q60.14 8.72 60.66 8.72L60.66 8.72Q61.05 8.72 61.32 8.95Q61.59 9.19 61.75 9.57Q61.90 9.96 61.92 10.49Q61.95 11.02 61.88 11.58L61.88 11.58Q62.25 11.09 62.71 10.58Q63.16 10.08 63.67 9.68Q64.17 9.28 64.71 9.02Q65.25 8.77 65.79 8.77L65.79 8.77Q66.42 8.77 66.76 9.14Q67.10 9.52 67.23 10.10Q67.36 10.69 67.30 11.37Q67.24 12.05 67.10 12.68L67.10 12.68L66.30 15.84Q66.05 17.02 66.80 17.02L66.80 17.02Q67.38 17.02 68.09 16.45Q68.79 15.89 69.46 15.12Q70.13 14.34 70.71 13.52Q71.30 12.70 71.70 12.21L71.70 12.21Q71.84 12.05 71.99 12.02Q72.14 12 72.25 12.08Q72.35 12.16 72.36 12.35Q72.38 12.54 72.23 12.82L72.23 12.82Q71.77 13.64 71.09 14.64Q70.41 15.63 69.60 16.50Q68.79 17.37 67.88 17.95Q66.96 18.54 65.98 18.54L65.98 18.54Q65.65 18.54 65.33 18.47Q65.02 18.40 64.75 18.21Q64.48 18.02 64.31 17.71Q64.15 17.39 64.15 16.90ZM89.72 15.77L89.72 15.77Q89.58 17.34 88.78 18.59Q87.98 19.83 86.75 20.68Q85.52 21.54 83.98 21.98Q82.43 22.43 80.79 22.43L80.79 22.43Q80.18 22.43 79.65 22.35Q79.13 22.27 78.70 22.15Q78.28 22.03 77.99 21.93Q77.70 21.82 77.58 21.75L77.58 21.75Q77.37 21.63 77.24 21.46Q77.11 21.28 77.09 20.95L77.09 20.95Q77.06 20.77 77.06 20.66Q77.06 20.55 77.09 20.44Q77.11 20.32 77.17 20.12Q77.23 19.92 77.32 19.57L77.32 19.57Q77.37 19.36 77.68 18.25Q78 17.13 78.45 15.53Q78.89 13.92 79.42 12.05Q79.95 10.17 80.44 8.41Q80.93 6.66 81.33 5.24Q81.73 3.82 81.91 3.14L81.91 3.14Q81.59 3.38 81.27 3.63Q80.95 3.89 80.63 4.20L80.63 4.20Q80.27 4.52 79.93 4.42Q79.59 4.31 79.45 3.84L79.45 3.84Q79.41 3.61 79.38 3.35L79.38 3.35Q79.36 3.14 79.39 2.87Q79.43 2.60 79.57 2.34L79.57 2.34Q80.34 1.88 81.08 1.55Q81.82 1.22 82.50 0.96L82.50 0.96Q82.64 0.56 82.82 0.35Q82.99 0.14 83.18 0.07Q83.37 0 83.58 0.02Q83.79 0.05 84.02 0.09L84.02 0.09Q84.54 0.21 84.70 0.42L84.70 0.42Q85.03 0.38 85.34 0.35Q85.64 0.33 85.97 0.33L85.97 0.33Q87.33 0.33 88.34 0.68Q89.34 1.03 89.99 1.63Q90.63 2.23 90.91 3.02Q91.20 3.82 91.13 4.71L91.13 4.71Q91.05 5.48 90.71 6.32Q90.38 7.15 89.81 7.96Q89.25 8.77 88.50 9.53Q87.75 10.29 86.84 10.92L86.84 10.92Q87.56 11.34 88.13 11.91Q88.69 12.47 89.06 13.13Q89.44 13.78 89.60 14.46Q89.77 15.14 89.72 15.77ZM81.96 10.03L81.96 10.03Q81.91 10.27 81.86 10.50Q81.80 10.73 81.73 10.99L81.73 10.99Q82.01 10.69 82.68 10.43Q83.34 10.17 83.95 10.17L83.95 10.17Q84.28 10.17 84.59 10.21Q84.89 10.24 85.17 10.29L85.17 10.29Q85.83 9.87 86.44 9.20Q87.05 8.53 87.50 7.77Q87.96 7.01 88.25 6.21Q88.55 5.41 88.62 4.73L88.62 4.73Q88.76 3.12 88.07 2.33Q87.38 1.55 86.11 1.55L86.11 1.55Q85.27 1.55 84.35 1.85L84.35 1.85Q84.16 2.46 83.88 3.36Q83.60 4.27 83.29 5.34Q82.97 6.42 82.62 7.62Q82.27 8.81 81.96 10.03ZM81.56 11.58L81.56 11.58Q81.23 12.84 80.91 14.32L80.91 14.32Q80.60 15.59 80.25 17.26Q79.90 18.94 79.50 20.84L79.50 20.84Q79.64 20.95 79.88 21Q80.11 21.05 80.34 21.09L80.34 21.09Q80.60 21.14 80.91 21.14L80.91 21.14Q81.96 21.14 83.05 20.71Q84.14 20.27 85.05 19.48Q85.97 18.68 86.59 17.54Q87.21 16.41 87.33 15L87.33 15Q87.38 14.37 87.25 13.86Q87.12 13.36 86.87 12.95Q86.63 12.54 86.31 12.22Q85.99 11.91 85.64 11.67L85.64 11.67Q84.56 12.26 83.27 12.66L83.27 12.66Q82.85 12.77 82.55 12.69Q82.24 12.61 82.03 12.43Q81.82 12.26 81.70 12.02Q81.59 11.79 81.56 11.58ZM98.70 14.25L98.70 14.25Q98.46 15.14 98.06 15.91Q97.66 16.69 97.11 17.25Q96.56 17.81 95.87 18.13Q95.18 18.45 94.36 18.45L94.36 18.45Q93.40 18.45 92.85 18.04Q92.30 17.63 92.03 17.02Q91.76 16.41 91.70 15.68Q91.64 14.95 91.64 14.32L91.64 14.32Q91.64 13.88 91.75 13.34Q91.85 12.80 92.04 12.23Q92.23 11.67 92.52 11.11Q92.81 10.55 93.21 10.08L93.21 10.08Q93.35 9.68 93.64 9.38Q93.94 9.07 94.32 8.87Q94.71 8.67 95.16 8.57Q95.60 8.46 96.02 8.46L96.02 8.46Q96.09 8.46 96.15 8.48Q96.21 8.51 96.28 8.53L96.28 8.53Q96.59 8.55 97.04 8.77Q97.50 8.98 97.93 9.40Q98.37 9.82 98.67 10.46Q98.98 11.11 98.98 12.02L98.98 12.02Q98.98 12.21 98.95 12.48Q98.93 12.75 98.91 12.94L98.91 12.94Q99.45 12.73 100.03 12.42Q100.62 12.12 101.17 11.78Q101.72 11.44 102.19 11.09Q102.66 10.73 102.94 10.45L102.94 10.45Q103.17 10.24 103.34 10.22Q103.50 10.20 103.57 10.31Q103.64 10.43 103.59 10.64Q103.55 10.85 103.34 11.11L103.34 11.11Q103.22 11.25 102.74 11.67Q102.26 12.09 101.60 12.59Q100.95 13.08 100.17 13.55Q99.40 14.02 98.70 14.25ZM94.73 10.69L94.73 10.69Q94.66 10.90 94.66 11.13L94.66 11.13Q94.66 11.51 94.71 11.92Q94.76 12.33 94.95 12.66Q95.13 12.98 95.54 13.21Q95.95 13.43 96.68 13.43L96.68 13.43Q96.80 13.43 96.91 13.42Q97.03 13.41 97.15 13.38L97.15 13.38Q97.22 13.08 97.28 12.83Q97.34 12.59 97.34 12.40L97.34 12.40Q97.38 11.95 97.34 11.48Q97.29 11.02 97.16 10.63Q97.03 10.24 96.83 10.00Q96.63 9.75 96.35 9.75L96.35 9.75Q95.91 9.75 95.50 10.00Q95.09 10.24 94.73 10.69ZM93.23 14.81L93.23 14.81Q93.23 15.23 93.28 15.64Q93.33 16.05 93.47 16.37Q93.61 16.69 93.84 16.89Q94.08 17.09 94.45 17.09L94.45 17.09Q94.88 17.09 95.23 16.89Q95.58 16.69 95.86 16.37Q96.14 16.05 96.36 15.64Q96.59 15.23 96.75 14.79L96.75 14.79Q96.59 14.81 96.43 14.82Q96.28 14.84 96.09 14.84L96.09 14.84Q95.20 14.84 94.56 14.31Q93.91 13.78 93.56 12.96L93.56 12.96Q93.42 13.45 93.33 13.92Q93.23 14.39 93.23 14.81ZM108.16 18.56L108.16 18.56Q107.63 18.56 107.24 18.36Q106.85 18.16 106.62 17.84Q106.38 17.51 106.31 17.07Q106.24 16.64 106.36 16.15L106.36 16.15Q106.43 15.82 106.59 15.27Q106.76 14.72 106.93 14.07Q107.11 13.43 107.26 12.79Q107.41 12.14 107.46 11.61Q107.51 11.09 107.41 10.75Q107.32 10.41 107.02 10.41L107.02 10.41Q106.64 10.41 106.24 10.65Q105.84 10.90 105.43 11.32Q105.02 11.74 104.61 12.29Q104.20 12.84 103.80 13.43L103.80 13.43Q103.59 14.23 103.45 14.82Q103.31 15.42 103.21 15.90Q103.10 16.38 103.01 16.75Q102.91 17.11 102.84 17.44L102.84 17.44Q102.77 17.67 102.42 17.89Q102.07 18.12 101.67 18.26Q101.27 18.40 100.98 18.40Q100.69 18.40 100.73 18.19L100.73 18.19Q100.76 18.05 100.89 17.55Q101.02 17.06 101.19 16.39Q101.37 15.73 101.55 14.98Q101.74 14.23 101.91 13.55L101.91 13.55Q102.02 13.01 102.16 12.35L102.16 12.35Q102.28 11.79 102.46 11.04Q102.63 10.29 102.87 9.40L102.87 9.40Q103.03 9.26 103.21 9.18Q103.38 9.09 103.57 9.05L103.57 9.05Q103.76 8.98 103.97 8.95L103.97 8.95Q104.16 8.95 104.34 8.98L104.34 8.98Q104.51 9 104.68 9.06Q104.86 9.12 105 9.23L105 9.23Q104.93 9.40 104.84 9.69Q104.74 9.98 104.65 10.31L104.65 10.31Q104.55 10.69 104.41 11.09L104.41 11.09Q104.72 10.66 105.11 10.23Q105.49 9.80 105.95 9.45Q106.41 9.09 106.92 8.87Q107.44 8.65 107.98 8.65L107.98 8.65Q108.42 8.65 108.77 8.91Q109.13 9.16 109.32 9.62Q109.52 10.08 109.56 10.71Q109.59 11.34 109.38 12.09L109.38 12.09L109.13 13.13Q109.01 13.62 108.83 14.29Q108.66 14.95 108.40 15.75L108.40 15.75Q108.26 16.27 108.29 16.64Q108.33 17.02 108.75 17.02L108.75 17.02Q109.17 17.02 109.82 16.50Q110.46 15.98 111.12 15.26Q111.77 14.53 112.36 13.77Q112.95 13.01 113.25 12.54L113.25 12.54Q113.46 12.23 113.65 12.14Q113.84 12.05 113.94 12.12Q114.05 12.19 114.05 12.43Q114.05 12.68 113.86 13.05L113.86 13.05Q113.70 13.38 113.36 13.92Q113.02 14.46 112.55 15.07Q112.08 15.68 111.54 16.30Q111 16.92 110.41 17.43Q109.83 17.93 109.25 18.25Q108.68 18.56 108.16 18.56ZM119.74 13.50L119.74 13.50Q119.63 14.23 119.52 14.88Q119.41 15.54 119.39 15.94L119.39 15.94Q119.37 16.52 119.60 16.78Q119.84 17.04 120.12 17.04L120.12 17.04Q120.45 17.04 120.93 16.71Q121.41 16.38 121.95 15.89Q122.48 15.40 123.02 14.81Q123.56 14.23 124.02 13.70Q124.48 13.17 124.79 12.77Q125.11 12.38 125.23 12.26L125.23 12.26Q125.37 12.12 125.52 12.09Q125.67 12.07 125.77 12.14Q125.86 12.21 125.86 12.40Q125.86 12.59 125.67 12.87L125.67 12.87Q125.39 13.31 124.95 13.91Q124.50 14.51 123.96 15.14Q123.42 15.77 122.82 16.38Q122.23 16.99 121.63 17.46Q121.03 17.93 120.48 18.22Q119.93 18.52 119.48 18.52L119.48 18.52Q119.16 18.52 118.86 18.33Q118.57 18.14 118.34 17.84Q118.10 17.53 117.97 17.16Q117.84 16.78 117.87 16.41L117.87 16.41Q117.89 16.24 117.94 15.84L117.94 15.84Q116.95 16.95 115.96 17.59Q114.96 18.23 114.05 18.23L114.05 18.23Q113.72 18.23 113.34 18.07Q112.97 17.91 112.68 17.53Q112.38 17.16 112.20 16.55Q112.01 15.94 112.05 15.07L112.05 15.07Q112.13 13.71 112.59 12.49Q113.06 11.27 113.78 10.37Q114.49 9.47 115.39 8.94Q116.30 8.41 117.21 8.41L117.21 8.41Q117.61 8.41 117.94 8.61Q118.27 8.81 118.50 9.13Q118.73 9.45 118.89 9.82Q119.04 10.20 119.11 10.52L119.11 10.52Q119.27 9.84 119.41 9.19Q119.55 8.53 119.70 7.95L119.70 7.95Q119.93 7.08 120.19 6.07L120.19 6.07Q120.42 5.20 120.73 4.08Q121.03 2.95 121.41 1.71L121.41 1.71Q121.64 1.52 121.85 1.43Q122.06 1.34 122.25 1.29L122.25 1.29Q122.46 1.22 122.65 1.22L122.65 1.22Q122.88 1.22 123.07 1.28Q123.26 1.34 123.39 1.58Q123.52 1.83 123.56 2.32Q123.61 2.81 123.56 3.66L123.56 3.66Q123.52 4.69 123.20 5.91Q122.88 7.13 122.37 8.43Q121.85 9.73 121.18 11.03Q120.52 12.33 119.74 13.50ZM118.36 13.80L118.36 13.80Q118.45 13.36 118.54 12.91Q118.62 12.47 118.73 12L118.73 12Q118.69 12.02 118.65 12.05Q118.62 12.07 118.57 12.09L118.57 12.09Q118.31 12.21 118.22 12.08Q118.13 11.95 118.13 11.67L118.13 11.67Q118.13 11.53 118.10 11.17Q118.08 10.80 117.97 10.42Q117.87 10.03 117.66 9.74Q117.45 9.45 117.07 9.45L117.07 9.45Q116.53 9.45 115.97 10.00Q115.41 10.55 114.91 11.33Q114.42 12.12 114.09 13.01Q113.77 13.90 113.72 14.60L113.72 14.60Q113.67 15.73 114 16.22Q114.33 16.71 114.89 16.71L114.89 16.71Q115.31 16.71 115.82 16.38Q116.32 16.05 116.80 15.59Q117.28 15.12 117.69 14.63Q118.10 14.13 118.36 13.80ZM129.05 4.17L129.05 4.17Q128.98 4.43 128.78 4.68Q128.58 4.92 128.33 5.07Q128.09 5.23 127.83 5.27Q127.57 5.32 127.41 5.18L127.41 5.18Q126.91 4.80 126.89 4.37Q126.87 3.94 127.10 3.55Q127.34 3.16 127.69 2.89Q128.04 2.63 128.30 2.58L128.30 2.58Q128.55 2.53 128.73 2.68Q128.91 2.84 129 3.08Q129.09 3.33 129.11 3.63Q129.12 3.94 129.05 4.17ZM125.81 9.16L125.81 9.16Q125.93 9.02 126.26 8.93Q126.59 8.84 126.94 8.78Q127.29 8.72 127.58 8.71Q127.88 8.70 127.92 8.72L127.92 8.72Q127.95 8.74 127.80 9.21Q127.66 9.68 127.45 10.31Q127.24 10.95 127.01 11.61Q126.77 12.28 126.66 12.70L126.66 12.70Q126.54 13.13 126.38 13.65Q126.21 14.18 126.08 14.68Q125.95 15.19 125.91 15.63Q125.86 16.08 125.98 16.31L125.98 16.31Q126.09 16.59 126.23 16.70Q126.38 16.80 126.54 16.80L126.54 16.80Q127.01 16.80 127.72 16.29Q128.44 15.77 129.18 15.06Q129.91 14.34 130.55 13.61Q131.18 12.87 131.48 12.42L131.48 12.42Q131.67 12.19 131.87 12.12Q132.07 12.05 132.20 12.14Q132.33 12.23 132.34 12.45Q132.35 12.66 132.19 12.94L132.19 12.94Q131.81 13.59 131.09 14.50Q130.36 15.40 129.54 16.23Q128.72 17.06 127.93 17.65Q127.15 18.23 126.66 18.26L126.66 18.26Q126.26 18.28 125.87 18.13Q125.48 17.98 125.17 17.71Q124.85 17.44 124.64 17.07Q124.43 16.71 124.41 16.31L124.41 16.31Q124.34 15.73 124.41 14.71Q124.48 13.69 124.66 12.62Q124.85 11.55 125.14 10.59Q125.44 9.63 125.81 9.16Z" transform="translate(36, 6.748)"></path></svg>